# xmcd CD database file
#
# Track frame offsets:
#	150
#	15232
#	36227
#	67217
#	92592
#	119105
#	141307
#	164092
#	175182
#	194540
#	214247
#	235052
#	260712
#	279925
#	305727
#	323557
#
# Disc length: 4603 seconds
#
# Revision: 7
# Processed by: cddbd v1.5.2PL0 Copyright (c) Steve Scherf et al.
# Submitted via: CDex 1.79
#
DISCID=f411f910
DTITLE=Jackson Browne - The Next Voice You Hear: The Best Of Jackson Browne
DYEAR=1997
DGENRE=Rock/Country Rock
TTITLE0=Doctor My Eyes
TTITLE1=These Days
TTITLE2=Fountain Of Sorrow
TTITLE3=Late For The Sky
TTITLE4=The Pretender
TTITLE5=Running On Empty
TTITLE6=The Load Out
TTITLE7=Stay
TTITLE8=Call It A Loan
TTITLE9=Somebody's Baby
TTITLE10=Tender Is The Night
TTITLE11=In The Shape Of A Heart
TTITLE12=Lives In The Balance
TTITLE13=The Barricades Of Heaven
TTITLE14=The Rebel Jesus
TTITLE15=The Next Voice You Hear
EXTD=YEAR: 1997
EXTT0=
EXTT1=
EXTT2=
EXTT3=
EXTT4=
EXTT5=
EXTT6=
EXTT7=
EXTT8=
EXTT9=
EXTT10=
EXTT11=
EXTT12=
EXTT13=
EXTT14=
EXTT15=
PLAYORDER=
